# xmcd
#
# Track frame offsets:
# 150
# 27566
# 54982
# 69005
# 94213
# 126220
# 160397
# 202544
# 244691
# 257181
# 266689
# 301798
# 316106
# 344911
#
# Disc length: 4723 seconds
#
# Revision: 0
# Processed by: cddbd v1.5.1PL2 Copyright (c) Steve Scherf et al.
# Submitted via: Audion 3.0.2 (http://www.panic.com/audion/)
#
DISCID=bf12710e
DTITLE=g1g - g
DYEAR=1900
DGENRE=
TTITLE0=l
TTITLE1=l
TTITLE2=;
TTITLE3=l
TTITLE4=l
TTITLE5=l
TTITLE6=l
TTITLE7=l
TTITLE8=l
TTITLE9=l
TTITLE10=l
TTITLE11=l
TTITLE12=l
TTITLE13=l
EXTD=
EXTT0=
EXTT1=
EXTT2=
EXTT3=
EXTT4=
EXTT5=
EXTT6=
EXTT7=
EXTT8=
EXTT9=
EXTT10=
EXTT11=
EXTT12=
EXTT13=
PLAYORDER=
